<svg id="Capa_1" enable-background="new 0 0 512 512" height="512" viewBox="0 0 512 512" width="512" xmlns="http://www.w3.org/2000/svg"><path d="m293.396 151.209h-126.295c-4.151 0-7.515 3.365-7.515 7.515s3.364 7.515 7.515 7.515h126.295c4.151 0 7.515-3.365 7.515-7.515 0-4.151-3.364-7.515-7.515-7.515z"/><path d="m167.101 193.203h70.984c4.151 0 7.515-3.365 7.515-7.515s-3.364-7.515-7.515-7.515h-70.984c-4.151 0-7.515 3.365-7.515 7.515.001 4.15 3.365 7.515 7.515 7.515z"/><path d="m129.28 148.141-27.66 28.363-11.966-11.636c-2.975-2.894-7.733-2.826-10.626.148-2.893 2.976-2.827 7.733.149 10.627l17.345 16.868c2.932 2.853 7.763 2.786 10.618-.141l32.899-33.736c2.898-2.971 2.839-7.729-.133-10.627-2.974-2.898-7.729-2.836-10.626.134z"/><path d="m293.396 227.742h-126.295c-4.151 0-7.515 3.364-7.515 7.515 0 4.15 3.364 7.515 7.515 7.515h126.295c4.151 0 7.515-3.365 7.515-7.515s-3.364-7.515-7.515-7.515z"/><path d="m238.085 254.706h-70.984c-4.151 0-7.515 3.364-7.515 7.515s3.364 7.515 7.515 7.515h70.984c4.151 0 7.515-3.365 7.515-7.515s-3.364-7.515-7.515-7.515z"/><path d="m129.28 224.675-27.66 28.363-11.966-11.636c-2.977-2.894-7.733-2.826-10.626.149s-2.827 7.733.149 10.626l17.345 16.867c2.932 2.853 7.763 2.786 10.618-.141l32.899-33.735c2.898-2.971 2.839-7.729-.133-10.627s-7.729-2.837-10.626.134z"/><path d="m129.28 301.208-27.66 28.363-11.966-11.636c-2.975-2.894-7.733-2.826-10.626.149s-2.827 7.733.149 10.626l17.345 16.867c2.932 2.853 7.763 2.786 10.618-.141l32.899-33.735c2.898-2.971 2.839-7.729-.133-10.627-2.972-2.897-7.729-2.836-10.626.134z"/><path d="m129.28 377.742-27.66 28.363-11.966-11.636c-2.975-2.894-7.733-2.826-10.626.148-2.893 2.975-2.827 7.733.149 10.627l17.345 16.868c2.932 2.853 7.763 2.786 10.618-.141l32.899-33.735c2.898-2.971 2.839-7.729-.133-10.627-2.972-2.9-7.729-2.838-10.626.133z"/><path d="m439.411 261.963c15.895-23.915 12.319-56.822 12.138-58.378-.402-3.464-3.135-6.197-6.599-6.599-1.748-.202-43.095-4.696-66.772 18.982-1.284 1.284-2.464 2.633-3.587 4.012v-52.028c0-4.15-3.364-7.515-7.515-7.515s-7.515 3.364-7.515 7.515v71.69c-5.014-7.934-11.699-15.893-20.595-23.124v-131.434c0-4.15-3.364-7.515-7.515-7.515h-52.399v-21.012h68.559c6.589 0 11.949 5.361 11.949 11.949v69.387c0 4.15 3.364 7.515 7.515 7.515s7.515-3.365 7.515-7.515v-69.386c0-14.876-12.103-26.978-26.978-26.978h-70.029c-3.005-7.482-10.322-12.786-18.866-12.786h-24.872v-11.054c.002-9.754-7.934-17.689-17.687-17.689h-47.288c-9.754 0-17.69 7.935-17.69 17.689v11.053h-24.87c-8.545 0-15.861 5.303-18.866 12.786h-70.029c-14.876 0-26.978 12.102-26.978 26.978v416.316c0 14.876 12.103 26.978 26.978 26.978h294.589c12.687 1.049 24.697-2.738 35.071-11.198 9.218 7.525 19.73 11.396 30.95 11.396 2.182 0 4.392-.147 6.623-.441 25.154-3.322 50.412-24.822 69.298-58.988 2.008-3.632.692-8.204-2.941-10.212-3.63-2.007-8.204-.691-10.211 2.941-16.312 29.508-38.036 48.708-58.112 51.359-11.262 1.484-21.414-2.377-30.197-11.479-2.913-3.017-7.902-3.018-10.815 0-11.174 11.581-24.4 14.671-39.317 9.18-17.019-6.265-34.543-23.551-48.08-47.428-14.966-26.397-24.364-59.519-26.465-93.264-1.387-22.281 4.856-40.969 18.553-55.544 18.304-19.479 50.189-31.425 88.639-33.486.702 2.042 1.356 4.116 1.919 6.25 2.481 9.4 3.034 17.776 3.04 23.336-13.938-1.925-23.036-8.842-23.116-8.904-3.256-2.573-7.982-2.021-10.555 1.235s-2.021 7.982 1.236 10.555c.653.516 16.256 12.637 39.546 12.639.005 0 .011.001.016.001.013 0 .025-.002.038-.002 23.268-.017 38.853-12.123 39.505-12.639 3.731-2.948 3.732-8.757.033-11.732 7.626-2.39 15.276-6.014 21.93-11.444 50.586 17.823 59.416 53.007 57.753 79.733-1.423 22.852-5.979 44.81-13.542 65.263-1.365 3.692.443 7.926 4.051 9.496 3.906 1.7 8.57-.293 10.045-4.284 8.072-21.829 12.932-45.227 14.446-69.542 2.674-42.967-19.24-75.519-61.934-92.634zm-318.407-212.885c0-2.926 2.381-5.306 5.306-5.306h32.385c4.151 0 7.515-3.364 7.515-7.515v-18.568c0-1.467 1.194-2.66 2.66-2.66h47.288c1.467 0 2.66 1.193 2.66 2.66v18.568c0 4.15 3.364 7.515 7.515 7.515h32.386c2.926 0 5.306 2.38 5.306 5.306v35.288c0 2.926-2.381 5.307-5.306 5.307h-132.409c-2.926 0-5.306-2.381-5.306-5.307zm134.405 238.753c-4.784 5.091-8.795 10.586-12.08 16.445h-76.227c-4.151 0-7.515 3.364-7.515 7.515 0 4.15 3.364 7.515 7.515 7.515h69.706c-1.228 3.852-2.204 7.827-2.893 11.935h-66.813c-4.151 0-7.515 3.365-7.515 7.515s3.364 7.515 7.515 7.515h65.516c-.033 2.733.015 5.504.191 8.331.552 8.874 1.559 17.626 2.988 26.208h-68.695c-4.151 0-7.515 3.365-7.515 7.515s3.364 7.515 7.515 7.515h71.683c.931 4.027 1.952 8.009 3.077 11.935h-74.76c-4.151 0-7.515 3.365-7.515 7.515s3.364 7.515 7.515 7.515h79.651c4.028 11.086 8.844 21.659 14.447 31.541 1.238 2.183 2.507 4.309 3.799 6.387h-203.91v-157.284c0-4.15-3.364-7.515-7.515-7.515s-7.515 3.365-7.515 7.515v164.796c0 4.15 3.364 7.515 7.515 7.515h221.946c6.585 8.325 13.63 15.391 20.949 21.012h-259.054c-6.589 0-11.949-5.361-11.949-11.949v-416.316c0-6.589 5.36-11.949 11.949-11.949h68.559v21.012h-52.4c-4.151 0-7.515 3.364-7.515 7.515v188.305c0 4.15 3.364 7.515 7.515 7.515s7.515-3.365 7.515-7.515v-180.791h46.643c3.168 7.119 10.296 12.103 18.578 12.103h132.408c8.282 0 15.41-4.983 18.578-12.103h46.642v113.917c-3.296-1.07-7 .256-8.81 3.372-2.085 3.589-.867 8.188 2.721 10.273 2.113 1.228 4.131 2.528 6.089 3.874v29.39c-28.867 5.84-52.819 17.687-68.529 34.406zm83.559-36.84v-13.833c3.568 3.975 6.695 8.268 9.377 12.875-3.169.254-6.295.575-9.377.958zm36.027 43.12c-.002-1.322-.031-2.762-.099-4.311.264.002.511.007.784.007 4.394 0 9.941-.248 16.007-1.104-3.902 1.994-9.651 4.326-16.692 5.408zm-1.197-19.372c-.19-11.114 1.228-34.362 15.009-48.143 13.781-13.783 37.061-15.199 48.141-15.009.191 11.113-1.227 34.362-15.008 48.143-13.782 13.782-37.019 15.194-48.142 15.009z"/></svg>