<svg id="icons" enable-background="new 0 0 64 64" height="512" viewBox="0 0 64 64" width="512" xmlns="http://www.w3.org/2000/svg"><g><path d="m25 46.998c5.877 0 11.401-2.288 15.557-6.443 8.577-8.578 8.577-22.534 0-31.111-4.156-4.156-9.68-6.444-15.557-6.444s-11.401 2.288-15.557 6.443c-4.155 4.155-6.443 9.679-6.443 15.557 0 5.877 2.288 11.402 6.443 15.555 4.156 4.155 9.68 6.443 15.557 6.443zm-14.143-36.141c3.778-3.777 8.8-5.857 14.143-5.857s10.365 2.081 14.143 5.858c7.798 7.798 7.798 20.485 0 28.283-3.777 3.777-8.8 5.857-14.143 5.857s-10.365-2.08-14.143-5.857c-3.777-3.777-5.857-8.799-5.857-14.141s2.08-10.366 5.857-14.143z"/><path d="m25 49.998c5.666 0 11.041-1.878 15.426-5.331l3.166 3.167-.707.707c-.391.391-.391 1.023 0 1.414l12.58 12.58c.944.944 2.2 1.465 3.536 1.465s2.591-.521 3.534-1.465c.944-.944 1.465-2.2 1.465-3.536 0-1.335-.52-2.589-1.464-3.532-.001 0-.001-.001-.001-.001l-12.58-12.583c-.391-.391-1.023-.391-1.414 0l-.708.708-3.166-3.167c7.698-9.802 7.04-24.073-1.989-33.102-4.722-4.722-11-7.322-17.678-7.322-6.677 0-12.955 2.6-17.678 7.322-4.721 4.721-7.322 10.999-7.322 17.677.001 6.678 2.601 12.956 7.322 17.678s11 7.321 17.678 7.321zm36.12 11.123c-1.132 1.135-3.109 1.133-4.241 0l-11.873-11.873.705-.706c.001 0 .002-.001.002-.001s.001-.001.001-.002l2.823-2.823c.001-.001.003-.002.004-.003s.002-.003.003-.004l.704-.705 11.873 11.876h.001v.001c.566.565.878 1.317.878 2.118 0 .802-.312 1.556-.88 2.122zm-14.701-16.116-1.413 1.415-3.053-3.054c.244-.226.488-.453.725-.689.237-.237.464-.48.689-.725zm-37.683-36.269c4.345-4.344 10.121-6.736 16.264-6.736 6.144 0 11.92 2.392 16.264 6.736 8.967 8.967 8.967 23.558 0 32.526-4.345 4.344-10.121 6.736-16.264 6.736-6.144 0-11.92-2.392-16.264-6.735s-6.735-10.12-6.736-16.264c0-6.144 2.393-11.919 6.736-16.263z"/><path d="m13.003 28v3.002c0 2.206 1.794 4.001 4 4.001s4-1.795 4-4.001v-3.002h7.995v3.002c0 2.206 1.794 4.001 4 4.001s4-1.795 4-4.001v-3.002h1.999c.553 0 1-.448 1-1v-4c0-.552-.447-1-1-1h-1.999v-3.001c0-2.206-1.794-4-4-4s-4 1.794-4 4v3.001h-7.995v-3.001c0-2.206-1.794-4-4-4s-4 1.794-4 4v3.001h-1.999c-.553 0-1 .448-1 1v4c0 .552.447 1 1 1zm24.994-4v2h-.999v-2zm-4.999-7.001c1.103 0 2 .897 2 2v4.001 4 4.002c0 1.104-.897 2.001-2 2.001s-2-.897-2-2.001v-3.997c0-.002.001-.003.001-.005s-.001-.003-.001-.005v-3.99c0-.002.001-.003.001-.005s-.001-.003-.001-.005v-3.996c0-1.103.898-2 2-2zm-4 7.001v2h-7.995v-2zm-11.995-7.001c1.103 0 2 .897 2 2v12.003c0 1.104-.897 2.001-2 2.001s-2-.897-2-2.001v-4.002-4-4.001c0-1.103.897-2 2-2zm-4.999 7.001h.999v2h-.999z"/></g></svg>